<svg width="150" height="150" viewBox="0 0 150 150" fill="none" xmlns="http://www.w3.org/2000/svg">
<path d="M31.5146 94.7881C31.5146 103.461 24.4299 110.545 15.7573 110.545C7.08468 110.545 0 103.461 0 94.7881C0 86.1154 7.08468 79.0308 15.7573 79.0308H31.5146V94.7881Z" fill="#E01E5A"/>
<path d="M39.4546 94.7881C39.4546 86.1154 46.5393 79.0308 55.2119 79.0308C63.8845 79.0308 70.9692 86.1154 70.9692 94.7881V134.242C70.9692 142.915 63.8845 150 55.2119 150C46.5393 150 39.4546 142.915 39.4546 134.242V94.7881Z" fill="#E01E5A"/>
<path d="M55.2119 31.5146C46.5393 31.5146 39.4546 24.4299 39.4546 15.7573C39.4546 7.08468 46.5393 0 55.2119 0C63.8845 0 70.9692 7.08468 70.9692 15.7573V31.5146H55.2119Z" fill="#36C5F0"/>
<path d="M55.2116 39.4543C63.8843 39.4543 70.9689 46.539 70.9689 55.2117C70.9689 63.8843 63.8843 70.9689 55.2116 70.9689H15.7573C7.08468 70.9689 0 63.8843 0 55.2117C0 46.539 7.08468 39.4543 15.7573 39.4543H55.2116Z" fill="#36C5F0"/>
<path d="M118.485 55.2117C118.485 46.539 125.57 39.4543 134.243 39.4543C142.915 39.4543 150 46.539 150 55.2117C150 63.8843 142.915 70.9689 134.243 70.9689H118.485V55.2117Z" fill="#2EB67D"/>
<path d="M110.546 55.2116C110.546 63.8843 103.461 70.9689 94.7885 70.9689C86.1159 70.9689 79.0312 63.8843 79.0312 55.2116V15.7573C79.0312 7.08468 86.1159 0 94.7885 0C103.461 0 110.546 7.08468 110.546 15.7573V55.2116Z" fill="#2EB67D"/>
<path d="M94.7881 118.485C103.461 118.485 110.545 125.57 110.545 134.242C110.545 142.915 103.461 150 94.7881 150C86.1154 150 79.0308 142.915 79.0308 134.242V118.485H94.7881Z" fill="#ECB22E"/>
<path d="M94.7881 110.545C86.1154 110.545 79.0308 103.461 79.0308 94.7881C79.0308 86.1154 86.1154 79.0308 94.7881 79.0308H134.242C142.915 79.0308 150 86.1154 150 94.7881C150 103.461 142.915 110.545 134.242 110.545H94.7881Z" fill="#ECB22E"/>
</svg>
